# xmcd CD database file
# Copyright (C) 1996 Ti Kan
#
# Track frame offsets:
#	150
#	14317
#	27067
#	39150
#	51585
#	61305
#	77485
#	89995
#	103460
#	115847
#	129622
#	145882
#	163160
#	178052
#	191085
#
# Disc length: 2744 seconds
#
# Revision: 1
# Processed by: cddbd v1.5.2PL0 Copyright (c) Steve Scherf et al.
# Submitted via: EasyCD 2.21 - (C) 1996 Greg Leichner
#
DISCID=d60ab60f
DTITLE=Assorted -  Award Winning Country
DYEAR=1993
DGENRE=Country
TTITLE0=Country Club/Travis Tritt
TTITLE1=Just To Satisfy You/Waylon&Willie
TTITLE2=Stand By Your Man/ Tammy Wynette
TTITLE3=I Walk The Line - Johnny Cash
TTITLE4=Don't Come Home A Drinkin" ()With Lovin' On Your Mind)/Loretta Lynn
TTITLE5=Oklahoma Boderline/Vince Gill
TTITLE6=Please Don't Tell Me How The Story Ends/Ronnie Milsao
TTITLE7=She's Got You/Patsy Cline
TTITLE8=Lovesick Blues/Hank Williams
TTITLE9=Coat Of Many Colors/ Dolly Parton
TTITLE10=I'M No Stranger To The Rain/Keith Whitley
TTITLE11=Give A Little Love/Alabama
TTITLE12=Love In The First Degree/Alabama
TTITLE13=You're The First Time I've Thought About Leaving/Reba McEntire
TTITLE14=He Stopped Loving Her Today/George Jones
EXTD=
EXTT0=
EXTT1=
EXTT2=
EXTT3=
EXTT4=
EXTT5=
EXTT6=
EXTT7=
EXTT8=
EXTT9=
EXTT10=
EXTT11=
EXTT12=
EXTT13=
EXTT14=
PLAYORDER=
